<svg id="Capa_1" enable-background="new 0 0 512 512" height="512" viewBox="0 0 512 512" width="512" xmlns="http://www.w3.org/2000/svg"><g><g><path clip-rule="evenodd" d="m130.301 443.016c0-23.471-19.048-42.52-42.519-42.52-17.064 0-31.747 10.035-38.55 24.52-1.304-.142-2.636-.227-3.968-.227-15.363 0-28.488 9.496-33.873 22.932-1.672 4.167-2.579 8.731-2.579 13.521 0 4.791.907 9.354 2.579 13.521 5.386 13.436 18.51 22.932 33.873 22.932h78.971c13.408 0 24.292-10.885 24.292-24.293 0-11.509-8.022-21.175-18.765-23.669.34-2.181.539-4.421.539-6.717z" fill="#eceaec" fill-rule="evenodd"/></g><g><path clip-rule="evenodd" d="m462.74 224.975c-6.775-14.485-21.486-24.52-38.522-24.52-.539 0-1.049 0-1.559.028-3.997 38.041-17.744 68.854-37.161 97.059.737.085 1.502.113 2.268.113h78.971c20.125 0 36.453-16.328 36.453-36.454s-16.327-36.454-36.453-36.454c-1.361.001-2.693.086-3.997.228z" fill="#eceaec" fill-rule="evenodd"/></g><g><path clip-rule="evenodd" d="m259.898 7.5c-52.808 0-99.777 26.787-129.795 67.096 13.379 5.414 22.79 18.51 22.79 33.817 0 20.126-16.299 36.425-36.424 36.425h-17.49c-2.013 10.46-3.09 21.175-3.09 32.088 0 79.569 39.429 128.523 88.921 180.653 8.589 9.014 10.913 8.731 18.396 8.731h31.294c-16.129-.141 22.053-322.98 25.398-358.81z" fill="#ff8086" fill-rule="evenodd"/></g><g><path clip-rule="evenodd" d="m423.878 176.927c0-90.596-73.416-169.427-163.98-169.427 3.316 35.83 41.527 358.669 25.369 358.811h31.294c7.512 0 9.836.283 18.396-8.731 18.85-19.843 36.226-39.232 50.54-60.038 19.417-28.205 33.165-59.018 37.161-97.059.823-7.568 1.22-15.392 1.22-23.556z" fill="#ff8086" fill-rule="evenodd"/></g><g><path clip-rule="evenodd" d="m311.94 431.621h-52.043-52.043v50.797c0 12.132 9.921 22.082 22.053 22.082h59.951c12.16 0 22.081-9.95 22.081-22.082v-50.797z" fill="#be8282" fill-rule="evenodd"/></g><g><path clip-rule="evenodd" d="m285.976 19.661c160.522 64.829 113.128 237.346 16.837 338.741-4.479 4.734-7.257 6.917-9.949 7.909h23.697c7.512 0 9.836.283 18.396-8.731 18.85-19.843 36.226-39.232 50.54-60.038 19.417-28.205 33.165-59.018 37.161-97.059.822-7.569 1.219-15.392 1.219-23.556 0-90.596-73.416-169.427-163.98-169.427 9.213 0 18 4.337 26.079 12.161z" fill="#f76672" fill-rule="evenodd"/></g><g><path clip-rule="evenodd" d="m289.859 504.5c12.16 0 22.081-9.95 22.081-22.082v-50.797h-21.883v50.797c0 12.132-9.921 22.082-22.053 22.082z" fill="#af7373" fill-rule="evenodd"/></g><g><path clip-rule="evenodd" d="m330.904 176.927c0-90.596-31.776-169.427-71.006-169.427-39.231 0-71.035 78.832-71.035 169.427 0 79.569 17.092 128.523 38.522 180.653 3.373 8.192 4.507 8.702 7.115 8.731h.85 24.547 24.547.822c2.636-.028 3.77-.539 7.143-8.731 21.431-52.129 38.495-101.084 38.495-180.653z" fill="#ffe07d" fill-rule="evenodd"/></g><g><path clip-rule="evenodd" d="m292.41 357.58c21.429-52.129 38.494-101.084 38.494-180.653 0-90.596-31.776-169.427-71.006-169.427-6.151 0-12.104 1.928-17.773 5.528 5.584 2.154 10.97 5.896 16.044 11.027 1.332 1.361 2.636 2.778 3.912 4.309 23.697 28.148 40.024 87.052 40.024 151.966 0 45.978-5.697 81.751-14.655 113.811-6.52 23.414-14.797 44.844-23.839 66.841-.964 2.353-1.757 4.082-2.438 5.329h23.272.822c2.636-.029 3.77-.539 7.143-8.731z" fill="#ffc269" fill-rule="evenodd"/></g><g><path clip-rule="evenodd" d="m188.863 176.927c0-76.422 22.648-144.482 53.262-163.9 5.669-3.6 11.622-5.528 17.773-5.528-87.759 0-101.024 99.468-101.024 169.427 0 79.569 17.064 128.523 38.494 180.653 3.373 8.192 4.535 8.702 7.143 8.731h29.99c-2.608-.028-3.742-.539-7.115-8.731-21.43-52.128-38.523-101.083-38.523-180.652z" fill="#f76672" fill-rule="evenodd"/></g><g><path clip-rule="evenodd" d="m112.471 72.158c-6.775-14.457-21.486-24.491-38.55-24.491-23.47 0-42.519 19.021-42.519 42.52 0 2.268.198 4.507.539 6.69-10.743 2.523-18.765 12.161-18.765 23.669 0 13.436 10.885 24.293 24.321 24.293h61.482 17.489c20.125 0 36.424-16.299 36.424-36.425 0-15.307-9.411-28.403-22.79-33.817-4.195-1.701-8.816-2.636-13.634-2.636-1.361-.001-2.693.056-3.997.197z" fill="#eceaec" fill-rule="evenodd"/></g><g><path clip-rule="evenodd" d="m98.979 144.839h17.489c20.125 0 36.424-16.299 36.424-36.425 0-15.307-9.411-28.403-22.79-33.817-4.195-1.701-8.816-2.636-13.634-2.636-1.361 0-2.693.057-3.997.198-6.746-14.372-21.288-24.378-38.182-24.491 13.153 12.33 21.713 32.513 21.713 55.332 0 15.789-4.11 30.302-10.97 41.839z" fill="#dad8db" fill-rule="evenodd"/></g><g><path clip-rule="evenodd" d="m80.044 497.697h44.191c13.408 0 24.292-10.885 24.292-24.293 0-11.509-8.022-21.175-18.765-23.669.34-2.183.539-4.422.539-6.718 0-23.471-19.048-42.52-42.519-42.52-.879 0-1.757.028-2.636.085 4.507 12.444 7.086 27.071 7.086 42.69 0 20.863-4.592 39.911-12.188 54.425z" fill="#dad8db" fill-rule="evenodd"/></g><g><path d="m467.11 217.25c-7.83-13.03-21.29-21.84-36.31-23.85.39-5.41.58-10.9.58-16.47 0-23.23-4.53-45.97-13.47-67.61-1.58-3.83-5.97-5.65-9.79-4.07-3.83 1.58-5.65 5.97-4.07 9.8 8.18 19.81 12.33 40.63 12.33 61.88 0 5.74-1.67 27.45-2.48 32.58-4.8 30.49-22.9 68.99-40.56 92.18-13.156 17.276-27.9 33.96-43.82 50.73-6.08 6.4-6.53 6.39-12.29 6.39h-17.22c21.07-51.4 38.39-100.9 38.39-181.88 0-45.12-7.58-88.29-21.36-121.56-6.11-14.76-13.17-26.77-20.9-35.79h.02c35.63 9.12 67.9 31.4 90.28 63.37 2.38 3.39 7.05 4.22 10.45 1.84 3.39-2.37 4.21-7.05 1.84-10.44-32.39-46.26-83.84-74-137.8-74.34-.34-.01-.69-.01-1.03-.01-22.78 0-44.94 4.71-65.5 13.7-20.56 8.98-39.52 22.25-55.89 39.36-3.91 4.09-7.62 8.35-11.11 12.78-3.38-.87-6.91-1.35-10.55-1.38-8.96-14.91-25.3-24.29-42.93-24.29-27.58 0-50.02 22.44-50.02 50.02 0 .52.01 1.04.03 1.57-11.01 5.15-18.25 16.21-18.25 28.79 0 17.53 14.27 31.79 31.82 31.79h52.67c-1.18 8.14-1.78 16.36-1.78 24.59 0 37.84 8.78 71.95 26.85 104.27 15.79 28.25 37.06 53.03 64.14 81.55 1.86 1.95 3.52 3.55 5.05 4.88.03.16.06.31.1.47l15.82 64.41v49.91c0 16.31 13.26 29.58 29.56 29.58h59.95c16.31 0 29.58-13.27 29.58-29.58v-49.91l15.83-64.41c.04-.16.07-.32.11-.48 1.53-1.33 3.18-2.94 5.02-4.88 19.19-20.21 35.46-38.55 48.93-57.58h77.41c24.23 0 43.95-19.72 43.95-43.96 0-24.11-19.52-43.75-43.58-43.95zm-429.61-79.91c-9.28 0-16.82-7.53-16.82-16.79 0-7.85 5.33-14.58 12.98-16.37 3.81-.9 6.3-4.58 5.69-8.46-.3-1.91-.45-3.77-.45-5.53 0-19.31 15.71-35.02 35.02-35.02 13.55 0 26.02 7.92 31.76 20.17.92 1.96 2.69 3.46 4.78 4.04 2.38.66 5.06 0 7.51.13 5.15.26 10.18 1.92 14.48 4.78 7.8 5.19 12.94 14.07 12.94 24.12 0 15.95-12.97 28.93-28.92 28.93zm152.75 215.08c-47.52-50.06-86.86-97.81-86.86-175.49 0-8.34.65-16.55 1.89-24.59h11.19c24.22 0 43.92-19.71 43.92-43.93 0-14.93-7.48-28.14-18.88-36.08 21.25-25.58 49.91-44.48 82.11-52.74h.02c-7.73 9.02-14.79 21.02-20.9 35.78-13.79 33.28-21.38 76.45-21.38 121.56 0 4.14 3.36 7.5 7.5 7.5s7.5-3.36 7.5-7.5c0-42.56 7.38-84.78 20.24-115.82 12.14-29.3 27.92-46.11 43.3-46.11 7.68 0 15.47 4.2 22.86 12.07 7.38 7.86 14.36 19.39 20.42 34.04 12.85 31.04 20.22 73.25 20.22 115.82 0 79.09-17.17 127.32-37.92 177.79-.84 2.03-1.43 3.3-1.83 4.09h-47.51c-.4-.79-.99-2.06-1.82-4.08-16.72-40.67-32.09-82.03-36.59-140.68-.32-4.13-3.92-7.2-8.05-6.9-4.13.32-7.22 3.92-6.91 8.05 4.61 60.04 20.08 102.3 37.01 143.61h-17.25c-5.73 0-6.18.01-12.28-6.39zm11.12 21.38c.34.01.68.01 1.03.01h50v50.31h-38.66zm103.07 108.62c0 8.04-6.54 14.58-14.58 14.58h-59.95c-8.03 0-14.56-6.54-14.56-14.58v-43.3h89.09zm1.62-58.3h-38.66v-50.31h49.97c.36 0 .71 0 1.05-.01zm160.68-133.96h-67.49c1.82-2.95 3.58-5.94 5.27-8.96 12.94-23.14 21.12-47.2 24.72-72.88 11.53 1.69 21.69 9.1 26.71 19.83 1.36 2.91 4.42 4.62 7.6 4.28 1.13-.12 2.17-.18 3.19-.18 15.96 0 28.95 12.99 28.95 28.95 0 15.97-12.99 28.96-28.95 28.96z"/><path d="m137.77 444.6c.02-.53.03-1.06.03-1.58 0-27.58-22.44-50.02-50.02-50.02-17.59 0-33.92 9.38-42.91 24.29-24.06.21-43.56 19.85-43.56 43.95 0 24.24 19.72 43.96 43.95 43.96h78.97c17.54 0 31.8-14.27 31.8-31.8 0-12.6-7.25-23.66-18.26-28.8zm-13.54 45.6h-78.97c-15.96 0-28.95-12.99-28.95-28.96 0-15.96 12.99-28.95 28.95-28.95.98 0 2.04.06 3.16.18 3.19.35 6.24-1.37 7.6-4.26 5.77-12.28 18.23-20.21 31.76-20.21 19.31 0 35.02 15.71 35.02 35.02 0 1.8-.15 3.62-.45 5.56-.6 3.88 1.89 7.57 5.72 8.46 7.51 1.74 12.96 8.63 12.96 16.36 0 9.26-7.54 16.8-16.8 16.8z"/></g></g></svg>