<svg height="480pt" viewBox="-8 0 480 480.07642" width="480pt" xmlns="http://www.w3.org/2000/svg"><path d="m216.070312 96.078125h16v48h-16zm0 0" fill="#e4e4e4"/><path d="m216.070312 96.078125h8v48h-8zm0 0" fill="#eee"/><path d="m248.070312 96.078125h16v48h-16zm0 0" fill="#d9d9d9"/><path d="m352.070312 120.078125h16v48h-16zm0 0" fill="#d9d9d9"/><path d="m384.070312 120.078125h16v48h-16zm0 0" fill="#d9d9d9"/><path d="m40.070312 264.078125h400c8.835938 0 16 7.160156 16 16v176c0 8.835937-7.164062 16-16 16h-400c-8.835937 0-16-7.164063-16-16v-176c0-8.839844 7.164063-16 16-16zm0 0" fill="#b2b2b2"/><path d="m440.070312 464.078125h-400c-8.835937 0-16-7.164063-16-16v-32l432-8v40c0 8.835937-7.164062 16-16 16zm0 0" fill="#b9b9b9"/><path d="m40.070312 264.078125h360v176h-360c-8.835937 0-16-7.164063-16-16v-144c0-8.839844 7.164063-16 16-16zm0 0" fill="#38c1b4"/><path d="m24.070312 360.078125h368v48h-368zm0 0" fill="#ae8567"/><path d="m24.070312 376.078125h368v16h-368zm0 0" fill="#bd9070"/><path d="m392.070312 440.078125h48c8.835938 0 16-7.164063 16-16v-144c0-8.839844-7.164062-16-16-16h-48zm0 0" fill="#d9d9d9"/><path d="m416.070312 336.078125h16v64h-16zm0 0" fill="#cdcdcd"/><path d="m272.070312 360.078125h-184l96-152zm0 0" fill="#ebebeb"/><path d="m216.070312 136.078125h48v22.34375c0 9.75-7.90625 17.65625-17.65625 17.65625h-12.6875c-9.75 0-17.65625-7.90625-17.65625-17.65625zm0 0" fill="#b4987d"/><path d="m248.070312 175.910156c9.046876-.828125 15.980469-8.40625 16-17.488281v-22.34375h-32v22.34375c.019532 9.082031 6.953126 16.660156 16 17.488281zm0 0" fill="#a88e74"/><path d="m288.070312 56.078125c0 26.507813-21.492187 48-48 48-26.511718 0-48-21.492187-48-48 0-26.511719 21.488282-48 48-48 26.507813 0 48 21.488281 48 48zm0 0" fill="#f27e55"/><path d="m205.527344 22.804688c-12.105469 12.535156-16.457032 30.648437-11.367188 47.316406 5.09375 16.664062 18.824219 29.253906 35.871094 32.882812 7.359375-29.210937-2.074219-60.09375-24.503906-80.199218zm0 0" fill="#ff855a"/><path d="m240.070312 8.078125-11.785156 23.566406c-7.6875 15.378907-7.6875 33.484375 0 48.863281l11.785156 23.570313 11.785157-23.570313c7.6875-15.378906 7.6875-33.484374 0-48.863281zm0 0" fill="#fece2f"/><path d="m223.511719 46.210938c-2.167969 11.652343-.484375 23.691406 4.796875 34.296874l4 8c.996094-14.640624-2.046875-29.273437-8.796875-42.304687zm0 0" fill="#fed76b"/><path d="m352.070312 160.078125h48v22.34375c0 9.75-7.90625 17.65625-17.65625 17.65625h-12.6875c-9.75 0-17.65625-7.90625-17.65625-17.65625zm0 0" fill="#8d7761"/><path d="m376.070312 136.078125c-30.929687 0-56-25.074219-56-56 0-30.929687 25.070313-56 56-56 30.925782 0 56 25.070313 56 56-.039062 30.910156-25.089843 55.957031-56 56zm0 0" fill="#ffc5c3"/><path d="m357.132812 52.078125c-8.808593 17.625-8.808593 38.371094 0 56l11.777344 23.566406c.09375.183594 1.296875 2 2.679688 4.199219 1.480468.113281 2.96875.226562 4.480468.226562 1.648438 0 3.261719-.105468 4.878907-.25 1.320312-2.398437 2.226562-4.070312 2.28125-4.175781l11.773437-23.566406c8.8125-17.628906 8.8125-38.375 0-56l-13.863281-27.746094c-1.671875-.152343-3.359375-.253906-5.070313-.253906-1.710937 0-3.402343.101563-5.074218.253906zm0 0" fill="#eea5a9"/><path d="m280.070312 224.078125 80 136h-176zm0 0" fill="#dededc"/><path d="m328.070312 376.078125h16v32h-16zm0 0" fill="#744630"/><path d="m280.070312 376.078125h16v32h-16zm0 0" fill="#8f563b"/><path d="m132.070312 104.078125c0 15.460937-12.535156 28-28 28-15.464843 0-28-12.539063-28-28 0-15.464844 12.535157-28 28-28 15.464844 0 28 12.535156 28 28zm0 0" fill="#f05447"/><path d="m96.070312 40.078125h16v16h-16zm0 0" fill="#fece2f"/><path d="m53.15625 64.476562 11.3125-11.3125 11.320312 11.316407-11.316406 11.316406zm0 0" fill="#fece2f"/><path d="m132.355469 143.671875 11.3125-11.316406 11.320312 11.320312-11.3125 11.3125zm0 0" fill="#fece2f"/><path d="m152.070312 96.078125h16v16h-16zm0 0" fill="#fece2f"/><path d="m132.351562 64.480469 11.320313-11.320313 11.3125 11.3125-11.320313 11.320313zm0 0" fill="#fece2f"/><path d="m168.070312 288.078125 16-24h32l-32-56-50.527343 80zm0 0" fill="#f3f3f3"/><path d="m272.070312 288.078125 8-16h28.230469l-28.230469-48-45.175781 64zm0 0" fill="#f3f3f3"/><path d="m416.070312 304.078125h16v16h-16zm0 0" fill="#cdcdcd"/><g fill="#a8d6da"><path d="m232.070312 200.078125h16v16h-16zm0 0"/><path d="m232.070312 232.078125h16v32h-16zm0 0"/><path d="m64.070312 192.078125h16v16h-16zm0 0"/><path d="m64.070312 224.078125h16v40h-16zm0 0"/><path d="m96.070312 208.078125h16v16h-16zm0 0"/><path d="m96.070312 240.078125h16v24h-16zm0 0"/><path d="m32.070312 168.078125h16v40h-16zm0 0"/><path d="m32.070312 224.078125h16v16h-16zm0 0"/><path d="m424.070312 192.078125h16v16h-16zm0 0"/><path d="m424.070312 224.078125h16v40h-16zm0 0"/><path d="m312.070312 184.078125h16v16h-16zm0 0"/><path d="m312.070312 216.078125h16v48h-16zm0 0"/><path d="m368.070312 224.078125h16v16h-16zm0 0"/></g><path d="m56.070312 376.078125-32 8v-64l32 8zm0 0" fill="#d9d9d9"/><path d="m336.070312 312.078125c13.253907 0 24 10.742187 24 24v24c0 13.253906-10.746093 24-24 24-13.253906 0-24-10.746094-24-24v-24c0-13.257813 10.746094-24 24-24zm0 0" fill="#6b9777"/><path d="m288.070312 328.078125c13.253907 0 24 10.742187 24 24v8c0 13.253906-10.746093 24-24 24-13.253906 0-24-10.746094-24-24v-8c0-13.257813 10.746094-24 24-24zm0 0" fill="#85bc94"/><path d="m88.070312 120.078125h-9.472656c.949219-2.5625 1.445313-5.269531 1.472656-8 0-13.257813-10.746093-24-24-24-13.253906 0-24 10.742187-24 24 .027344 2.730469.523438 5.4375 1.472657 8h-1.472657c-13.253906 0-24 10.742187-24 24 0 13.253906 10.746094 24 24 24h56c13.253907 0 24-10.746094 24-24 0-13.257813-10.746093-24-24-24zm0 0" fill="#c0f5f9"/><path d="m80.070312 128.078125h-9.472656c.949219-2.5625 1.445313-5.269531 1.472656-8 0-13.257813-10.746093-24-24-24-4.394531.011719-8.699218 1.25-12.433593 3.566406-3.859375 6.105469-4.632813 13.667969-2.09375 20.433594h-1.472657c-13.253906 0-24 10.742187-24 24 0 13.253906 10.746094 24 24 24h56c4.394532-.015625 8.699219-1.25 12.429688-3.570313 2.320312-3.734374 3.554688-8.035156 3.570312-12.429687 0-13.257813-10.746093-24-24-24zm0 0" fill="#b8eaee"/><path d="m440.070312 256.078125v-32h-16v32h-96v-40h-16v40h-3.894531l-21.210937-36.058594c-1.375-2.34375-3.847656-3.832031-6.566406-3.941406-2.714844-.128906-5.308594 1.144531-6.863282 3.375l-25.464844 36.070313v-23.445313h-16v24h-10.96875l-30.023437-51.859375-.0625-.109375c-.175781-.265625-.371094-.519531-.578125-.761719-.203125-.300781-.425781-.589844-.664062-.863281-.253907-.214844-.519532-.410156-.800782-.59375-.261718-.238281-.546875-.457031-.847656-.652344-.273438-.144531-.554688-.269531-.847656-.371093-.328125-.167969-.667969-.316407-1.015625-.4375-.3125-.070313-.632813-.117188-.953125-.144532-.347656-.097656-.703125-.167968-1.0625-.207031-.089844 0-.175782 0-.265625 0-2.726563-.054687-5.269531 1.359375-6.664063 3.703125l-33.246094 52.640625v-.34375h-32v-16h-16v16h-16v-32h-16v32h-24c-13.253906 0-24 10.742187-24 24v176c0 13.253906 10.746094 24 24 24h400c13.253907 0 24-10.746094 24-24v-176c0-13.257813-10.746093-24-24-24zm0 16c4.417969 0 8 3.578125 8 8v144c0 4.417969-3.582031 8-8 8h-40v-160zm-400 160c-4.417968 0-8-3.582031-8-8v-8h352v16zm-8-101.753906 16 4v35.503906l-16 4zm25.933594 53.511719c3.566406-.886719 6.066406-4.085938 6.066406-7.757813v-8h193.136719c2.914063 11.199219 11.660157 19.949219 22.863281 22.863281v9.136719h-248v-9.761719zm125.722656-160.230469 18.550782 32.472656h-18.207032c-2.675781-.003906-5.171874 1.332031-6.65625 3.558594l-13.625 20.441406h-15.71875l16.878907-26.730469zm-45.769531 72.472656h30.113281c2.671876 0 5.171876-1.335937 6.65625-3.5625l13.625-20.4375h23.527344l11.046875 19.070313-43.007812 60.929687h-77.328125zm246.113281 104h-40v-9.136719c11.203126-2.914062 19.949219-11.664062 22.863282-22.863281h17.136718zm-48-80c8.835938 0 16 7.160156 16 16v24c0 8.835937-7.164062 16-16 16-8.835937 0-16-7.164063-16-16v-24c0-8.839844 7.164063-16 16-16zm-32 40c0 8.835937-7.164062 16-16 16-8.835937 0-16-7.164063-16-16v-8c0-8.839844 7.164063-16 16-16 8.835938 0 16 7.160156 16 16zm-8 30.863281c6.210938-1.617187 11.789063-5.074218 16-9.921875 4.210938 4.847657 9.789063 8.304688 16 9.921875v9.136719h-32zm88-38.863281h-16v-16c-.019531-17.515625-14.117187-31.761719-31.632812-31.960937l-18.847656-32.039063h66.480468zm-63.703124-43.714844c-6.722657 3.8125-11.835938 9.921875-14.402344 17.210938-9.804688-6.617188-22.460938-7.285157-32.90625-1.734375-10.445313 5.550781-16.980469 16.40625-16.988282 28.238281h-56.558593l39.527343-56h33.03125c3.046876.015625 5.835938-1.699219 7.199219-4.425781l5.746094-11.574219h18.710937zm-26.050782-44.285156h-14.246094c-3.046874-.019531-5.839843 1.695313-7.199218 4.421875l-5.746094 11.578125h-16.800781l29.128906-41.257813zm-57.925781 8-3.3125 4.6875-2.710937-4.6875zm-196.320313 0h94.113282l-50.53125 80h-19.582032v-24c0-3.671875-2.5-6.875-6.066406-7.761719l-25.933594-6.480468v-33.757813c0-4.421875 3.582032-8 8-8zm400 192h-400c-4.417968 0-8-3.582031-8-8v-9.472656c2.5625.945312 5.269532 1.445312 8 1.472656h400c2.730469-.027344 5.4375-.527344 8-1.472656v9.472656c0 4.417969-3.582031 8-8 8zm0 0"/><path d="m416.070312 336.078125h16v64h-16zm0 0"/><path d="m296.070312 56.078125c.039063-27.757813-20.261718-51.351563-47.710937-55.460937-27.453125-4.109376-53.769531 12.511718-61.859375 39.0625-8.089844 26.550781 4.492188 55.019531 29.570312 66.917968v21.480469c-4.417968 0-8 3.578125-8 8v22.34375c.011719 14.164063 11.492188 25.640625 25.65625 25.65625h12.6875c14.164063-.015625 25.640626-11.492187 25.65625-25.65625v-22.34375c0-4.421875-3.582031-8-8-8v-21.480469c19.519532-9.257812 31.96875-28.917968 32-50.519531zm-60.625-20.851563 4.625-9.261718 4.625 9.261718c6.542969 13.128907 6.542969 28.570313 0 41.699219l-4.625 9.261719-4.625-9.261719c-6.542968-13.128906-6.542968-28.570312 0-41.699219zm44.625 20.851563c-.046874 16.519531-10.246093 31.3125-25.671874 37.230469l4.605468-9.222656c8.773438-17.636719 8.773438-38.363282 0-56l-4.605468-9.226563c15.417968 5.917969 25.617187 20.703125 25.671874 37.21875zm-80 0c.046876-16.523437 10.246094-31.316406 25.671876-37.234375l-4.609376 9.234375c-8.769531 17.632813-8.769531 38.363281 0 56l4.609376 9.222656c-15.421876-5.917969-25.621094-20.707031-25.671876-37.222656zm56 102.34375c-.003906 5.328125-4.324218 9.648437-9.65625 9.65625h-12.6875c-5.332031-.007813-9.652343-4.328125-9.65625-9.65625v-14.34375h32zm-8-30.34375h-16v-16.640625c5.296876.851562 10.699219.851562 16 0zm0 0"/><path d="m432.070312 80.078125c.039063-27.757813-20.261718-51.351563-47.710937-55.460937-27.453125-4.109376-53.769531 12.511718-61.859375 39.0625-8.089844 26.550781 4.492188 55.019531 29.570312 66.917968v21.480469c-4.417968 0-8 3.578125-8 8v22.34375c.011719 14.164063 11.492188 25.640625 25.65625 25.65625h12.6875c14.164063-.015625 25.640626-11.492187 25.65625-25.65625v-22.34375c0-4.421875-3.582031-8-8-8v-21.480469c19.519532-9.257812 31.96875-28.917968 32-50.519531zm-60.625-20.851563 4.625-9.261718 4.625 9.261718c6.542969 13.128907 6.542969 28.570313 0 41.699219l-4.625 9.261719-4.625-9.261719c-6.542968-13.128906-6.542968-28.570312 0-41.699219zm44.625 20.851563c-.046874 16.519531-10.246093 31.3125-25.671874 37.230469l4.605468-9.222656c8.773438-17.636719 8.773438-38.363282 0-56l-4.605468-9.226563c15.417968 5.917969 25.617187 20.703125 25.671874 37.21875zm-80 0c.046876-16.523437 10.246094-31.316406 25.671876-37.234375l-4.609376 9.234375c-8.769531 17.632813-8.769531 38.363281 0 56l4.609376 9.222656c-15.421876-5.917969-25.621094-20.707031-25.671876-37.222656zm56 102.34375c-.003906 5.328125-4.324218 9.648437-9.65625 9.65625h-12.6875c-5.332031-.007813-9.652343-4.328125-9.65625-9.65625v-14.34375h32zm-8-30.34375h-16v-16.640625c5.296876.851562 10.699219.851562 16 0zm0 0"/><path d="m96.070312 40.078125h16v16h-16zm0 0"/><path d="m53.15625 64.476562 11.3125-11.3125 11.320312 11.316407-11.316406 11.316406zm0 0"/><path d="m132.355469 143.671875 11.3125-11.316406 11.320312 11.320312-11.3125 11.3125zm0 0"/><path d="m152.070312 96.078125h16v16h-16zm0 0"/><path d="m132.351562 64.480469 11.320313-11.320313 11.3125 11.3125-11.320313 11.320313zm0 0"/><path d="m416.070312 304.078125h16v16h-16zm0 0"/><path d="m232.070312 200.078125h16v16h-16zm0 0"/><path d="m64.070312 192.078125h16v16h-16zm0 0"/><path d="m96.070312 208.078125h16v16h-16zm0 0"/><path d="m32.070312 208.078125h16v-32h40c10.527344.070313 20.40625-5.074219 26.378907-13.742187 5.976562-8.664063 7.277343-19.726563 3.46875-29.539063 12.363281-5.894531 19.585937-19.015625 17.957031-32.613281-1.632812-13.597656-11.753906-24.640625-25.15625-27.445313-13.40625-2.804687-27.105469 3.253907-34.050781 15.058594-5.722657-4.949219-13.03125-7.6875-20.597657-7.71875-17.671874 0-32 14.324219-32 32v1.007813c-15.617187 4.015624-25.808593 19.023437-23.777343 35.023437 2.03125 15.996094 15.652343 27.984375 31.777343 27.96875zm72-120c7.929688.113281 14.574219 6.019531 15.625 13.882813 1.046876 7.859374-3.820312 15.300781-11.441406 17.492187-5.074218-4.1875-11.332031-6.683594-17.894531-7.144531-2.964844-4.941406-3.046875-11.097656-.207031-16.113282 2.839844-5.015624 8.15625-8.117187 13.917968-8.117187zm-88 56c0-8.839844 7.164063-16 16-16h1.472657c2.597656-.003906 5.03125-1.265625 6.527343-3.386719 1.5-2.121094 1.875-4.839844 1.007813-7.285156-.640625-1.707031-.980469-3.507812-1.007813-5.328125 0-8.839844 7.164063-16 16-16 8.835938 0 16 7.160156 16 16-.027343 1.820313-.367187 3.621094-1.007812 5.328125-.867188 2.445312-.492188 5.164062 1.003906 7.285156 1.5 2.121094 3.933594 3.382813 6.53125 3.386719h9.472656c8.835938 0 16 7.160156 16 16 0 8.835937-7.164062 16-16 16h-56c-8.835937 0-16-7.164063-16-16zm0 0"/><path d="m32.070312 224.078125h16v16h-16zm0 0"/><path d="m424.070312 192.078125h16v16h-16zm0 0"/><path d="m312.070312 184.078125h16v16h-16zm0 0"/><path d="m368.070312 224.078125h16v16h-16zm0 0"/></svg>